<?xml version="1.0" encoding="UTF-8"?>
<mxfile host="app.diagrams.net" modified="2025-09-20T00:00:00.000Z" version="22.1.11">
  <diagram name="AWS Security Architecture" id="security_template">
    <mxGraphModel dx="2500" dy="1600" grid="1" gridSize="10" guides="1" tooltips="1" connect="1" arrows="1" fold="1" page="1" pageScale="1" pageWidth="1400" pageHeight="1000">
      <root>
        <mxCell id="0"/>
        <mxCell id="1" parent="0"/>
        
        <mxCell id="title" value="{{TITLE}}" style="text;html=1;strokeColor=none;fillColor=none;align=center;verticalAlign=middle;whiteSpace=wrap;rounded=0;fontSize=18;fontStyle=1;fontColor=#1976D2;" vertex="1" parent="1">
          <mxGeometry x="400" y="20" width="600" height="30" as="geometry"/>
        </mxCell>
        
        <mxCell id="users" value="{{USERS_LABEL}}" style="shape=mxgraph.aws4.users;labelPosition=bottom;verticalLabelPosition=top;align=center;verticalAlign=bottom;fillColor=#E3F2FD;strokeColor=#1976D2;fontColor=#0D47A1;" vertex="1" parent="1">
          <mxGeometry x="100" y="100" width="78" height="78" as="geometry"/>
        </mxCell>
        
        <mxCell id="cloudfront" value="{{CLOUDFRONT_LABEL}}" style="shape=mxgraph.aws4.cloudfront;labelPosition=bottom;verticalLabelPosition=top;align=center;verticalAlign=bottom;fillColor=#E3F2FD;strokeColor=#1976D2;fontColor=#0D47A1;" vertex="1" parent="1">
          <mxGeometry x="300" y="100" width="78" height="78" as="geometry"/>
        </mxCell>
        
        <mxCell id="waf" value="{{WAF_LABEL}}" style="shape=mxgraph.aws4.waf;labelPosition=bottom;verticalLabelPosition=top;align=center;verticalAlign=bottom;fillColor=#FFEBEE;strokeColor=#D32F2F;fontColor=#B71C1C;" vertex="1" parent="1">
          <mxGeometry x="500" y="100" width="78" height="78" as="geometry"/>
        </mxCell>
        
        <mxCell id="shield" value="{{SHIELD_LABEL}}" style="shape=mxgraph.aws4.shield;labelPosition=bottom;verticalLabelPosition=top;align=center;verticalAlign=bottom;fillColor=#FFEBEE;strokeColor=#D32F2F;fontColor=#B71C1C;" vertex="1" parent="1">
          <mxGeometry x="700" y="100" width="78" height="78" as="geometry"/>
        </mxCell>
        
        <mxCell id="cognito" value="{{COGNITO_LABEL}}" style="shape=mxgraph.aws4.cognito;labelPosition=bottom;verticalLabelPosition=top;align=center;verticalAlign=bottom;fillColor=#FFEBEE;strokeColor=#D32F2F;fontColor=#B71C1C;" vertex="1" parent="1">
          <mxGeometry x="200" y="300" width="78" height="78" as="geometry"/>
        </mxCell>
        
        <mxCell id="api_gateway" value="{{API_GATEWAY_LABEL}}" style="shape=mxgraph.aws4.api_gateway;labelPosition=bottom;verticalLabelPosition=top;align=center;verticalAlign=bottom;fillColor=#E3F2FD;strokeColor=#1976D2;fontColor=#0D47A1;" vertex="1" parent="1">
          <mxGeometry x="400" y="300" width="78" height="78" as="geometry"/>
        </mxCell>
        
        <mxCell id="iam" value="{{IAM_LABEL}}" style="shape=mxgraph.aws4.iam;labelPosition=bottom;verticalLabelPosition=top;align=center;verticalAlign=bottom;fillColor=#FFEBEE;strokeColor=#D32F2F;fontColor=#B71C1C;" vertex="1" parent="1">
          <mxGeometry x="600" y="300" width="78" height="78" as="geometry"/>
        </mxCell>
        
        <mxCell id="fargate" value="{{FARGATE_LABEL}}" style="shape=mxgraph.aws4.fargate;labelPosition=bottom;verticalLabelPosition=top;align=center;verticalAlign=bottom;fillColor=#FFF3E0;strokeColor=#FF9800;fontColor=#E65100;" vertex="1" parent="1">
          <mxGeometry x="300" y="500" width="78" height="78" as="geometry"/>
        </mxCell>
        
        <mxCell id="secrets" value="{{SECRETS_LABEL}}" style="shape=mxgraph.aws4.secrets_manager;labelPosition=bottom;verticalLabelPosition=top;align=center;verticalAlign=bottom;fillColor=#FFEBEE;strokeColor=#D32F2F;fontColor=#B71C1C;" vertex="1" parent="1">
          <mxGeometry x="500" y="500" width="78" height="78" as="geometry"/>
        </mxCell>
        
        <mxCell id="kms" value="{{KMS_LABEL}}" style="shape=mxgraph.aws4.kms;labelPosition=bottom;verticalLabelPosition=top;align=center;verticalAlign=bottom;fillColor=#FFEBEE;strokeColor=#D32F2F;fontColor=#B71C1C;" vertex="1" parent="1">
          <mxGeometry x="200" y="700" width="78" height="78" as="geometry"/>
        </mxCell>
        
        <mxCell id="rds" value="{{RDS_LABEL}}" style="shape=mxgraph.aws4.rds;labelPosition=bottom;verticalLabelPosition=top;align=center;verticalAlign=bottom;fillColor=#E8F5E8;strokeColor=#4CAF50;fontColor=#2E7D32;" vertex="1" parent="1">
          <mxGeometry x="400" y="700" width="78" height="78" as="geometry"/>
        </mxCell>
        
        <mxCell id="s3" value="{{S3_LABEL}}" style="shape=mxgraph.aws4.s3;labelPosition=bottom;verticalLabelPosition=top;align=center;verticalAlign=bottom;fillColor=#E8F5E8;strokeColor=#4CAF50;fontColor=#2E7D32;" vertex="1" parent="1">
          <mxGeometry x="600" y="700" width="78" height="78" as="geometry"/>
        </mxCell>
        
        <mxCell id="cloudwatch" value="{{CLOUDWATCH_LABEL}}" style="shape=mxgraph.aws4.cloudwatch;labelPosition=bottom;verticalLabelPosition=top;align=center;verticalAlign=bottom;fillColor=#FFF8E1;strokeColor=#FFC107;fontColor=#FF8F00;" vertex="1" parent="1">
          <mxGeometry x="900" y="300" width="78" height="78" as="geometry"/>
        </mxCell>
        
        <mxCell id="cloudtrail" value="{{CLOUDTRAIL_LABEL}}" style="shape=mxgraph.aws4.cloudtrail;labelPosition=bottom;verticalLabelPosition=top;align=center;verticalAlign=bottom;fillColor=#FFF8E1;strokeColor=#FFC107;fontColor=#FF8F00;" vertex="1" parent="1">
          <mxGeometry x="900" y="500" width="78" height="78" as="geometry"/>
        </mxCell>
        
        <mxCell id="conn1" style="edgeStyle=orthogonalEdgeStyle;rounded=0;orthogonalLoop=1;jettySize=auto;html=1;strokeColor=#1976D2;strokeWidth=2;" edge="1" parent="1" source="users" target="cloudfront">
          <mxGeometry relative="1" as="geometry"/>
        </mxCell>
        
        <mxCell id="conn2" style="edgeStyle=orthogonalEdgeStyle;rounded=0;orthogonalLoop=1;jettySize=auto;html=1;strokeColor=#D32F2F;strokeWidth=3;" edge="1" parent="1" source="cloudfront" target="waf">
          <mxGeometry relative="1" as="geometry"/>
        </mxCell>
        
        <mxCell id="conn3" style="edgeStyle=orthogonalEdgeStyle;rounded=0;orthogonalLoop=1;jettySize=auto;html=1;strokeColor=#D32F2F;strokeWidth=3;" edge="1" parent="1" source="waf" target="shield">
          <mxGeometry relative="1" as="geometry"/>
        </mxCell>
        
        <mxCell id="conn4" style="edgeStyle=orthogonalEdgeStyle;rounded=0;orthogonalLoop=1;jettySize=auto;html=1;strokeColor=#1976D2;strokeWidth=2;" edge="1" parent="1" source="shield" target="api_gateway">
          <mxGeometry relative="1" as="geometry"/>
        </mxCell>
        
        <mxCell id="conn5" style="edgeStyle=orthogonalEdgeStyle;rounded=0;orthogonalLoop=1;jettySize=auto;html=1;strokeColor=#D32F2F;strokeWidth=2;" edge="1" parent="1" source="api_gateway" target="cognito">
          <mxGeometry relative="1" as="geometry"/>
        </mxCell>
        
        <mxCell id="conn6" style="edgeStyle=orthogonalEdgeStyle;rounded=0;orthogonalLoop=1;jettySize=auto;html=1;strokeColor=#D32F2F;strokeWidth=2;" edge="1" parent="1" source="cognito" target="iam">
          <mxGeometry relative="1" as="geometry"/>
        </mxCell>
        
        <mxCell id="conn7" style="edgeStyle=orthogonalEdgeStyle;rounded=0;orthogonalLoop=1;jettySize=auto;html=1;strokeColor=#FF9800;strokeWidth=2;" edge="1" parent="1" source="iam" target="fargate">
          <mxGeometry relative="1" as="geometry"/>
        </mxCell>
        
        <mxCell id="conn8" style="edgeStyle=orthogonalEdgeStyle;rounded=0;orthogonalLoop=1;jettySize=auto;html=1;strokeColor=#D32F2F;strokeWidth=2;" edge="1" parent="1" source="fargate" target="secrets">
          <mxGeometry relative="1" as="geometry"/>
        </mxCell>
        
        <mxCell id="conn9" style="edgeStyle=orthogonalEdgeStyle;rounded=0;orthogonalLoop=1;jettySize=auto;html=1;strokeColor=#D32F2F;strokeWidth=2;" edge="1" parent="1" source="fargate" target="kms">
          <mxGeometry relative="1" as="geometry"/>
        </mxCell>
        
        <mxCell id="conn10" style="edgeStyle=orthogonalEdgeStyle;rounded=0;orthogonalLoop=1;jettySize=auto;html=1;strokeColor=#4CAF50;strokeWidth=2;" edge="1" parent="1" source="kms" target="rds">
          <mxGeometry relative="1" as="geometry"/>
        </mxCell>
        
        <mxCell id="conn11" style="edgeStyle=orthogonalEdgeStyle;rounded=0;orthogonalLoop=1;jettySize=auto;html=1;strokeColor=#4CAF50;strokeWidth=2;" edge="1" parent="1" source="kms" target="s3">
          <mxGeometry relative="1" as="geometry"/>
        </mxCell>
        
        <mxCell id="conn12" style="edgeStyle=orthogonalEdgeStyle;rounded=0;orthogonalLoop=1;jettySize=auto;html=1;strokeColor=#FFC107;strokeWidth=2;" edge="1" parent="1" source="fargate" target="cloudwatch">
          <mxGeometry relative="1" as="geometry"/>
        </mxCell>
        
        <mxCell id="conn13" style="edgeStyle=orthogonalEdgeStyle;rounded=0;orthogonalLoop=1;jettySize=auto;html=1;strokeColor=#FFC107;strokeWidth=2;" edge="1" parent="1" source="api_gateway" target="cloudtrail">
          <mxGeometry relative="1" as="geometry"/>
        </mxCell>
        
      </root>
    </mxGraphModel>
  </diagram>
</mxfile>
